<svg width="122" height="41" viewBox="0 0 122 41" fill="none" xmlns="http://www.w3.org/2000/svg">
<rect x="0.291016" width="121.224" height="41" rx="10" fill="#EB5757" fill-opacity="0.15"/>
<g filter="url(#filter0_d_1126_10754)">
<path d="M33.9536 20.0867C33.9536 19.1347 34.1682 18.2807 34.5976 17.5247C35.0269 16.7593 35.6102 16.162 36.3476 15.7327C37.0942 15.3033 37.9202 15.0887 38.8256 15.0887C39.8896 15.0887 40.8182 15.3453 41.6116 15.8587C42.4049 16.372 42.9836 17.1 43.3476 18.0427H41.8216C41.5509 17.4547 41.1589 17.002 40.6456 16.6847C40.1416 16.3673 39.5349 16.2087 38.8256 16.2087C38.1442 16.2087 37.5329 16.3673 36.9916 16.6847C36.4502 17.002 36.0256 17.4547 35.7176 18.0427C35.4096 18.6213 35.2556 19.3027 35.2556 20.0867C35.2556 20.8613 35.4096 21.5427 35.7176 22.1307C36.0256 22.7093 36.4502 23.1573 36.9916 23.4747C37.5329 23.792 38.1442 23.9507 38.8256 23.9507C39.5349 23.9507 40.1416 23.7967 40.6456 23.4887C41.1589 23.1713 41.5509 22.7187 41.8216 22.1307H43.3476C42.9836 23.064 42.4049 23.7873 41.6116 24.3007C40.8182 24.8047 39.8896 25.0567 38.8256 25.0567C37.9202 25.0567 37.0942 24.8467 36.3476 24.4267C35.6102 23.9973 35.0269 23.4047 34.5976 22.6487C34.1682 21.8927 33.9536 21.0387 33.9536 20.0867ZM46.518 14.6127V24.9727H45.244V14.6127H46.518ZM52.0353 25.0987C51.3167 25.0987 50.6633 24.9353 50.0753 24.6087C49.4967 24.282 49.0393 23.82 48.7033 23.2227C48.3767 22.616 48.2133 21.916 48.2133 21.1227C48.2133 20.3387 48.3813 19.648 48.7173 19.0507C49.0627 18.444 49.5293 17.982 50.1173 17.6647C50.7053 17.338 51.3633 17.1747 52.0913 17.1747C52.8193 17.1747 53.4773 17.338 54.0653 17.6647C54.6533 17.982 55.1153 18.4393 55.4513 19.0367C55.7967 19.634 55.9693 20.3293 55.9693 21.1227C55.9693 21.916 55.792 22.616 55.4373 23.2227C55.092 23.82 54.6207 24.282 54.0233 24.6087C53.426 24.9353 52.7633 25.0987 52.0353 25.0987ZM52.0353 23.9787C52.4927 23.9787 52.922 23.8713 53.3233 23.6567C53.7247 23.442 54.0467 23.12 54.2893 22.6907C54.5413 22.2613 54.6673 21.7387 54.6673 21.1227C54.6673 20.5067 54.546 19.984 54.3033 19.5547C54.0607 19.1253 53.7433 18.808 53.3513 18.6027C52.9593 18.388 52.5347 18.2807 52.0773 18.2807C51.6107 18.2807 51.1813 18.388 50.7893 18.6027C50.4067 18.808 50.0987 19.1253 49.8653 19.5547C49.632 19.984 49.5153 20.5067 49.5153 21.1227C49.5153 21.748 49.6273 22.2753 49.8513 22.7047C50.0847 23.134 50.3927 23.456 50.7753 23.6707C51.158 23.876 51.578 23.9787 52.0353 23.9787ZM60.3604 25.0987C59.7724 25.0987 59.2451 25.0007 58.7784 24.8047C58.3117 24.5993 57.9431 24.3193 57.6724 23.9647C57.4017 23.6007 57.2524 23.1853 57.2244 22.7187H58.5404C58.5777 23.1013 58.7551 23.414 59.0724 23.6567C59.3991 23.8993 59.8237 24.0207 60.3464 24.0207C60.8317 24.0207 61.2144 23.9133 61.4944 23.6987C61.7744 23.484 61.9144 23.2133 61.9144 22.8867C61.9144 22.5507 61.7651 22.3033 61.4664 22.1447C61.1677 21.9767 60.7057 21.8133 60.0804 21.6547C59.5111 21.5053 59.0444 21.356 58.6804 21.2067C58.3257 21.048 58.0177 20.8193 57.7564 20.5207C57.5044 20.2127 57.3784 19.8113 57.3784 19.3167C57.3784 18.9247 57.4951 18.5653 57.7284 18.2387C57.9617 17.912 58.2931 17.6553 58.7224 17.4687C59.1517 17.2727 59.6417 17.1747 60.1924 17.1747C61.0417 17.1747 61.7277 17.3893 62.2504 17.8187C62.7731 18.248 63.0531 18.836 63.0904 19.5827H61.8164C61.7884 19.1813 61.6251 18.8593 61.3264 18.6167C61.0371 18.374 60.6451 18.2527 60.1504 18.2527C59.6931 18.2527 59.3291 18.3507 59.0584 18.5467C58.7877 18.7427 58.6524 18.9993 58.6524 19.3167C58.6524 19.5687 58.7317 19.7787 58.8904 19.9467C59.0584 20.1053 59.2637 20.236 59.5064 20.3387C59.7584 20.432 60.1037 20.5393 60.5424 20.6607C61.0931 20.81 61.5411 20.9593 61.8864 21.1087C62.2317 21.2487 62.5257 21.4633 62.7684 21.7527C63.0204 22.042 63.1511 22.42 63.1604 22.8867C63.1604 23.3067 63.0437 23.6847 62.8104 24.0207C62.5771 24.3567 62.2457 24.6227 61.8164 24.8187C61.3964 25.0053 60.9111 25.0987 60.3604 25.0987ZM71.9589 20.8427C71.9589 21.0853 71.9449 21.342 71.9169 21.6127H65.7849C65.8315 22.3687 66.0882 22.9613 66.5549 23.3907C67.0309 23.8107 67.6049 24.0207 68.2769 24.0207C68.8275 24.0207 69.2849 23.8947 69.6489 23.6427C70.0222 23.3813 70.2835 23.036 70.4329 22.6067H71.8049C71.5995 23.344 71.1889 23.946 70.5729 24.4127C69.9569 24.87 69.1915 25.0987 68.2769 25.0987C67.5489 25.0987 66.8955 24.9353 66.3169 24.6087C65.7475 24.282 65.2995 23.82 64.9729 23.2227C64.6462 22.616 64.4829 21.916 64.4829 21.1227C64.4829 20.3293 64.6415 19.634 64.9589 19.0367C65.2762 18.4393 65.7195 17.982 66.2889 17.6647C66.8675 17.338 67.5302 17.1747 68.2769 17.1747C69.0049 17.1747 69.6489 17.3333 70.2089 17.6507C70.7689 17.968 71.1982 18.4067 71.4969 18.9667C71.8049 19.5173 71.9589 20.1427 71.9589 20.8427ZM70.6429 20.5767C70.6429 20.0913 70.5355 19.676 70.3209 19.3307C70.1062 18.976 69.8122 18.71 69.4389 18.5327C69.0749 18.346 68.6689 18.2527 68.2209 18.2527C67.5769 18.2527 67.0262 18.458 66.5689 18.8687C66.1209 19.2793 65.8642 19.8487 65.7989 20.5767H70.6429ZM73.1645 21.1087C73.1645 20.3247 73.3232 19.6387 73.6405 19.0507C73.9578 18.4533 74.3918 17.9913 74.9425 17.6647C75.5025 17.338 76.1278 17.1747 76.8185 17.1747C77.4158 17.1747 77.9712 17.3147 78.4845 17.5947C78.9978 17.8653 79.3898 18.2247 79.6605 18.6727V14.6127H80.9485V24.9727H79.6605V23.5307C79.4085 23.988 79.0352 24.366 78.5405 24.6647C78.0458 24.954 77.4672 25.0987 76.8045 25.0987C76.1232 25.0987 75.5025 24.9307 74.9425 24.5947C74.3918 24.2587 73.9578 23.7873 73.6405 23.1807C73.3232 22.574 73.1645 21.8833 73.1645 21.1087ZM79.6605 21.1227C79.6605 20.544 79.5438 20.04 79.3105 19.6107C79.0772 19.1813 78.7598 18.8547 78.3585 18.6307C77.9665 18.3973 77.5325 18.2807 77.0565 18.2807C76.5805 18.2807 76.1465 18.3927 75.7545 18.6167C75.3625 18.8407 75.0498 19.1673 74.8165 19.5967C74.5832 20.026 74.4665 20.53 74.4665 21.1087C74.4665 21.6967 74.5832 22.21 74.8165 22.6487C75.0498 23.078 75.3625 23.4093 75.7545 23.6427C76.1465 23.8667 76.5805 23.9787 77.0565 23.9787C77.5325 23.9787 77.9665 23.8667 78.3585 23.6427C78.7598 23.4093 79.0772 23.078 79.3105 22.6487C79.5438 22.21 79.6605 21.7013 79.6605 21.1227Z" fill="#EB5757"/>
</g>
<ellipse cx="17.3218" cy="19" rx="5.00927" ry="5" fill="#EB5757"/>
<defs>
<filter id="filter0_d_1126_10754" x="29.9531" y="14.6133" width="54.9961" height="18.4863" filterUnits="userSpaceOnUse" color-interpolation-filters="sRGB">
<feFlood flood-opacity="0" result="BackgroundImageFix"/>
<feColorMatrix in="SourceAlpha" type="matrix" values="0 0 0 0 0 0 0 0 0 0 0 0 0 0 0 0 0 0 127 0" result="hardAlpha"/>
<feOffset dy="4"/>
<feGaussianBlur stdDeviation="2"/>
<feComposite in2="hardAlpha" operator="out"/>
<feColorMatrix type="matrix" values="0 0 0 0 0 0 0 0 0 0 0 0 0 0 0 0 0 0 0.05 0"/>
<feBlend mode="normal" in2="BackgroundImageFix" result="effect1_dropShadow_1126_10754"/>
<feBlend mode="normal" in="SourceGraphic" in2="effect1_dropShadow_1126_10754" result="shape"/>
</filter>
</defs>
</svg>
