<svg width="122" height="41" viewBox="0 0 122 41" fill="none" xmlns="http://www.w3.org/2000/svg">
<rect width="121.224" height="41" rx="10" fill="#FCE6E6"/>
<g filter="url(#filter0_d_2931_7816)">
<path d="M37.177 15.2147C38.241 15.2147 39.1604 15.4153 39.935 15.8167C40.719 16.2087 41.3164 16.7733 41.727 17.5107C42.147 18.248 42.357 19.116 42.357 20.1147C42.357 21.1133 42.147 21.9813 41.727 22.7187C41.3164 23.4467 40.719 24.0067 39.935 24.3987C39.1604 24.7813 38.241 24.9727 37.177 24.9727H34.139V15.2147H37.177ZM37.177 23.9227C38.437 23.9227 39.3984 23.5913 40.061 22.9287C40.7237 22.2567 41.055 21.3187 41.055 20.1147C41.055 18.9013 40.719 17.954 40.047 17.2727C39.3844 16.5913 38.4277 16.2507 37.177 16.2507H35.413V23.9227H37.177ZM51.0375 20.8427C51.0375 21.0853 51.0235 21.342 50.9955 21.6127H44.8635C44.9101 22.3687 45.1668 22.9613 45.6335 23.3907C46.1095 23.8107 46.6835 24.0207 47.3555 24.0207C47.9061 24.0207 48.3635 23.8947 48.7275 23.6427C49.1008 23.3813 49.3621 23.036 49.5115 22.6067H50.8835C50.6781 23.344 50.2675 23.946 49.6515 24.4127C49.0355 24.87 48.2701 25.0987 47.3555 25.0987C46.6275 25.0987 45.9741 24.9353 45.3955 24.6087C44.8261 24.282 44.3781 23.82 44.0515 23.2227C43.7248 22.616 43.5615 21.916 43.5615 21.1227C43.5615 20.3293 43.7201 19.634 44.0375 19.0367C44.3548 18.4393 44.7981 17.982 45.3675 17.6647C45.9461 17.338 46.6088 17.1747 47.3555 17.1747C48.0835 17.1747 48.7275 17.3333 49.2875 17.6507C49.8475 17.968 50.2768 18.4067 50.5755 18.9667C50.8835 19.5173 51.0375 20.1427 51.0375 20.8427ZM49.7215 20.5767C49.7215 20.0913 49.6141 19.676 49.3995 19.3307C49.1848 18.976 48.8908 18.71 48.5175 18.5327C48.1535 18.346 47.7475 18.2527 47.2995 18.2527C46.6555 18.2527 46.1048 18.458 45.6475 18.8687C45.1995 19.2793 44.9428 19.8487 44.8775 20.5767H49.7215ZM52.2431 21.1227C52.2431 20.3293 52.4018 19.6387 52.7191 19.0507C53.0364 18.4533 53.4751 17.9913 54.0351 17.6647C54.6044 17.338 55.2531 17.1747 55.9811 17.1747C56.9238 17.1747 57.6984 17.4033 58.3051 17.8607C58.9211 18.318 59.3271 18.9527 59.5231 19.7647H58.1511C58.0204 19.298 57.7638 18.9293 57.3811 18.6587C57.0078 18.388 56.5411 18.2527 55.9811 18.2527C55.2531 18.2527 54.6651 18.5047 54.2171 19.0087C53.7691 19.5033 53.5451 20.208 53.5451 21.1227C53.5451 22.0467 53.7691 22.7607 54.2171 23.2647C54.6651 23.7687 55.2531 24.0207 55.9811 24.0207C56.5411 24.0207 57.0078 23.89 57.3811 23.6287C57.7544 23.3673 58.0111 22.994 58.1511 22.5087H59.5231C59.3178 23.2927 58.9071 23.9227 58.2911 24.3987C57.6751 24.8653 56.9051 25.0987 55.9811 25.0987C55.2531 25.0987 54.6044 24.9353 54.0351 24.6087C53.4751 24.282 53.0364 23.82 52.7191 23.2227C52.4018 22.6253 52.2431 21.9253 52.2431 21.1227ZM62.497 14.6127V24.9727H61.223V14.6127H62.497ZM65.3263 16.0547C65.0837 16.0547 64.8783 15.9707 64.7103 15.8027C64.5423 15.6347 64.4583 15.4293 64.4583 15.1867C64.4583 14.944 64.5423 14.7387 64.7103 14.5707C64.8783 14.4027 65.0837 14.3187 65.3263 14.3187C65.5597 14.3187 65.7557 14.4027 65.9143 14.5707C66.0823 14.7387 66.1663 14.944 66.1663 15.1867C66.1663 15.4293 66.0823 15.6347 65.9143 15.8027C65.7557 15.9707 65.5597 16.0547 65.3263 16.0547ZM65.9423 17.3007V24.9727H64.6683V17.3007H65.9423ZM71.8516 17.1607C72.785 17.1607 73.541 17.4453 74.1196 18.0147C74.6983 18.5747 74.9876 19.3867 74.9876 20.4507V24.9727H73.7276V20.6327C73.7276 19.8673 73.5363 19.284 73.1536 18.8827C72.771 18.472 72.2483 18.2667 71.5856 18.2667C70.9136 18.2667 70.377 18.4767 69.9756 18.8967C69.5836 19.3167 69.3876 19.928 69.3876 20.7307V24.9727H68.1136V17.3007H69.3876V18.3927C69.6396 18.0007 69.9803 17.6973 70.4096 17.4827C70.8483 17.268 71.329 17.1607 71.8516 17.1607ZM84.0687 20.8427C84.0687 21.0853 84.0547 21.342 84.0267 21.6127H77.8947C77.9414 22.3687 78.1981 22.9613 78.6647 23.3907C79.1407 23.8107 79.7147 24.0207 80.3867 24.0207C80.9374 24.0207 81.3947 23.8947 81.7587 23.6427C82.1321 23.3813 82.3934 23.036 82.5427 22.6067H83.9147C83.7094 23.344 83.2987 23.946 82.6827 24.4127C82.0667 24.87 81.3014 25.0987 80.3867 25.0987C79.6587 25.0987 79.0054 24.9353 78.4267 24.6087C77.8574 24.282 77.4094 23.82 77.0827 23.2227C76.7561 22.616 76.5927 21.916 76.5927 21.1227C76.5927 20.3293 76.7514 19.634 77.0687 19.0367C77.3861 18.4393 77.8294 17.982 78.3987 17.6647C78.9774 17.338 79.6401 17.1747 80.3867 17.1747C81.1147 17.1747 81.7587 17.3333 82.3187 17.6507C82.8787 17.968 83.3081 18.4067 83.6067 18.9667C83.9147 19.5173 84.0687 20.1427 84.0687 20.8427ZM82.7527 20.5767C82.7527 20.0913 82.6454 19.676 82.4307 19.3307C82.2161 18.976 81.9221 18.71 81.5487 18.5327C81.1847 18.346 80.7787 18.2527 80.3307 18.2527C79.6867 18.2527 79.1361 18.458 78.6787 18.8687C78.2307 19.2793 77.9741 19.8487 77.9087 20.5767H82.7527ZM85.2744 21.1087C85.2744 20.3247 85.433 19.6387 85.7504 19.0507C86.0677 18.4533 86.5017 17.9913 87.0524 17.6647C87.6124 17.338 88.2377 17.1747 88.9284 17.1747C89.5257 17.1747 90.081 17.3147 90.5944 17.5947C91.1077 17.8653 91.4997 18.2247 91.7704 18.6727V14.6127H93.0584V24.9727H91.7704V23.5307C91.5184 23.988 91.145 24.366 90.6504 24.6647C90.1557 24.954 89.577 25.0987 88.9144 25.0987C88.233 25.0987 87.6124 24.9307 87.0524 24.5947C86.5017 24.2587 86.0677 23.7873 85.7504 23.1807C85.433 22.574 85.2744 21.8833 85.2744 21.1087ZM91.7704 21.1227C91.7704 20.544 91.6537 20.04 91.4204 19.6107C91.187 19.1813 90.8697 18.8547 90.4684 18.6307C90.0764 18.3973 89.6424 18.2807 89.1664 18.2807C88.6904 18.2807 88.2564 18.3927 87.8644 18.6167C87.4724 18.8407 87.1597 19.1673 86.9264 19.5967C86.693 20.026 86.5764 20.53 86.5764 21.1087C86.5764 21.6967 86.693 22.21 86.9264 22.6487C87.1597 23.078 87.4724 23.4093 87.8644 23.6427C88.2564 23.8667 88.6904 23.9787 89.1664 23.9787C89.6424 23.9787 90.0764 23.8667 90.4684 23.6427C90.8697 23.4093 91.187 23.078 91.4204 22.6487C91.6537 22.21 91.7704 21.7013 91.7704 21.1227Z" fill="#EB5757"/>
</g>
<ellipse cx="17.0312" cy="19" rx="5.00927" ry="5" fill="#EB5757"/>
<defs>
<filter id="filter0_d_2931_7816" x="30.1392" y="14.3184" width="66.9194" height="18.7812" filterUnits="userSpaceOnUse" color-interpolation-filters="sRGB">
<feFlood flood-opacity="0" result="BackgroundImageFix"/>
<feColorMatrix in="SourceAlpha" type="matrix" values="0 0 0 0 0 0 0 0 0 0 0 0 0 0 0 0 0 0 127 0" result="hardAlpha"/>
<feOffset dy="4"/>
<feGaussianBlur stdDeviation="2"/>
<feComposite in2="hardAlpha" operator="out"/>
<feColorMatrix type="matrix" values="0 0 0 0 0 0 0 0 0 0 0 0 0 0 0 0 0 0 0.05 0"/>
<feBlend mode="normal" in2="BackgroundImageFix" result="effect1_dropShadow_2931_7816"/>
<feBlend mode="normal" in="SourceGraphic" in2="effect1_dropShadow_2931_7816" result="shape"/>
</filter>
</defs>
</svg>
