<svg width="122" height="41" viewBox="0 0 122 41" fill="none" xmlns="http://www.w3.org/2000/svg">
<rect width="121.224" height="41" rx="10" fill="#0CBC8B" fill-opacity="0.15"/>
<g filter="url(#filter0_d_2931_7790)">
<path d="M39.907 22.8027H35.651L34.867 24.9727H33.523L37.051 15.2707H38.521L42.035 24.9727H40.691L39.907 22.8027ZM39.543 21.7667L37.779 16.8387L36.015 21.7667H39.543ZM44.8466 18.7147C45.0986 18.276 45.472 17.912 45.9666 17.6227C46.4706 17.324 47.054 17.1747 47.7166 17.1747C48.398 17.1747 49.014 17.338 49.5646 17.6647C50.1246 17.9913 50.5633 18.4533 50.8806 19.0507C51.198 19.6387 51.3566 20.3247 51.3566 21.1087C51.3566 21.8833 51.198 22.574 50.8806 23.1807C50.5633 23.7873 50.1246 24.2587 49.5646 24.5947C49.014 24.9307 48.398 25.0987 47.7166 25.0987C47.0633 25.0987 46.4846 24.954 45.9806 24.6647C45.486 24.366 45.108 23.9973 44.8466 23.5587V28.6127H43.5726V17.3007H44.8466V18.7147ZM50.0546 21.1087C50.0546 20.53 49.938 20.026 49.7046 19.5967C49.4713 19.1673 49.154 18.8407 48.7526 18.6167C48.3606 18.3927 47.9266 18.2807 47.4506 18.2807C46.984 18.2807 46.55 18.3973 46.1486 18.6307C45.7566 18.8547 45.4393 19.186 45.1966 19.6247C44.9633 20.054 44.8466 20.5533 44.8466 21.1227C44.8466 21.7013 44.9633 22.21 45.1966 22.6487C45.4393 23.078 45.7566 23.4093 46.1486 23.6427C46.55 23.8667 46.984 23.9787 47.4506 23.9787C47.9266 23.9787 48.3606 23.8667 48.7526 23.6427C49.154 23.4093 49.4713 23.078 49.7046 22.6487C49.938 22.21 50.0546 21.6967 50.0546 21.1087ZM54.3076 18.7147C54.5596 18.276 54.9329 17.912 55.4276 17.6227C55.9316 17.324 56.5149 17.1747 57.1776 17.1747C57.8589 17.1747 58.4749 17.338 59.0256 17.6647C59.5856 17.9913 60.0242 18.4533 60.3416 19.0507C60.6589 19.6387 60.8176 20.3247 60.8176 21.1087C60.8176 21.8833 60.6589 22.574 60.3416 23.1807C60.0242 23.7873 59.5856 24.2587 59.0256 24.5947C58.4749 24.9307 57.8589 25.0987 57.1776 25.0987C56.5242 25.0987 55.9456 24.954 55.4416 24.6647C54.9469 24.366 54.5689 23.9973 54.3076 23.5587V28.6127H53.0336V17.3007H54.3076V18.7147ZM59.5156 21.1087C59.5156 20.53 59.3989 20.026 59.1656 19.5967C58.9322 19.1673 58.6149 18.8407 58.2136 18.6167C57.8216 18.3927 57.3876 18.2807 56.9116 18.2807C56.4449 18.2807 56.0109 18.3973 55.6096 18.6307C55.2176 18.8547 54.9002 19.186 54.6576 19.6247C54.4242 20.054 54.3076 20.5533 54.3076 21.1227C54.3076 21.7013 54.4242 22.21 54.6576 22.6487C54.9002 23.078 55.2176 23.4093 55.6096 23.6427C56.0109 23.8667 56.4449 23.9787 56.9116 23.9787C57.3876 23.9787 57.8216 23.8667 58.2136 23.6427C58.6149 23.4093 58.9322 23.078 59.1656 22.6487C59.3989 22.21 59.5156 21.6967 59.5156 21.1087ZM63.7685 18.5467C63.9925 18.108 64.3098 17.7673 64.7205 17.5247C65.1405 17.282 65.6492 17.1607 66.2465 17.1607V18.4767H65.9105C64.4825 18.4767 63.7685 19.2513 63.7685 20.8007V24.9727H62.4945V17.3007H63.7685V18.5467ZM71.0632 25.0987C70.3445 25.0987 69.6912 24.9353 69.1032 24.6087C68.5245 24.282 68.0672 23.82 67.7312 23.2227C67.4045 22.616 67.2412 21.916 67.2412 21.1227C67.2412 20.3387 67.4092 19.648 67.7452 19.0507C68.0905 18.444 68.5572 17.982 69.1452 17.6647C69.7332 17.338 70.3912 17.1747 71.1192 17.1747C71.8472 17.1747 72.5052 17.338 73.0932 17.6647C73.6812 17.982 74.1432 18.4393 74.4792 19.0367C74.8245 19.634 74.9972 20.3293 74.9972 21.1227C74.9972 21.916 74.8198 22.616 74.4652 23.2227C74.1198 23.82 73.6485 24.282 73.0512 24.6087C72.4538 24.9353 71.7912 25.0987 71.0632 25.0987ZM71.0632 23.9787C71.5205 23.9787 71.9498 23.8713 72.3512 23.6567C72.7525 23.442 73.0745 23.12 73.3172 22.6907C73.5692 22.2613 73.6952 21.7387 73.6952 21.1227C73.6952 20.5067 73.5738 19.984 73.3312 19.5547C73.0885 19.1253 72.7712 18.808 72.3792 18.6027C71.9872 18.388 71.5625 18.2807 71.1052 18.2807C70.6385 18.2807 70.2092 18.388 69.8172 18.6027C69.4345 18.808 69.1265 19.1253 68.8932 19.5547C68.6598 19.984 68.5432 20.5067 68.5432 21.1227C68.5432 21.748 68.6552 22.2753 68.8792 22.7047C69.1125 23.134 69.4205 23.456 69.8032 23.6707C70.1858 23.876 70.6058 23.9787 71.0632 23.9787ZM79.5282 23.7967L81.9082 17.3007H83.2662L80.2562 24.9727H78.7722L75.7622 17.3007H77.1342L79.5282 23.7967ZM91.5199 20.8427C91.5199 21.0853 91.5059 21.342 91.4779 21.6127H85.3459C85.3926 22.3687 85.6492 22.9613 86.1159 23.3907C86.5919 23.8107 87.1659 24.0207 87.8379 24.0207C88.3886 24.0207 88.8459 23.8947 89.2099 23.6427C89.5832 23.3813 89.8446 23.036 89.9939 22.6067H91.3659C91.1606 23.344 90.7499 23.946 90.1339 24.4127C89.5179 24.87 88.7526 25.0987 87.8379 25.0987C87.1099 25.0987 86.4566 24.9353 85.8779 24.6087C85.3086 24.282 84.8606 23.82 84.5339 23.2227C84.2072 22.616 84.0439 21.916 84.0439 21.1227C84.0439 20.3293 84.2026 19.634 84.5199 19.0367C84.8372 18.4393 85.2806 17.982 85.8499 17.6647C86.4286 17.338 87.0912 17.1747 87.8379 17.1747C88.5659 17.1747 89.2099 17.3333 89.7699 17.6507C90.3299 17.968 90.7592 18.4067 91.0579 18.9667C91.3659 19.5173 91.5199 20.1427 91.5199 20.8427ZM90.2039 20.5767C90.2039 20.0913 90.0966 19.676 89.8819 19.3307C89.6672 18.976 89.3732 18.71 88.9999 18.5327C88.6359 18.346 88.2299 18.2527 87.7819 18.2527C87.1379 18.2527 86.5872 18.458 86.1299 18.8687C85.6819 19.2793 85.4252 19.8487 85.3599 20.5767H90.2039ZM92.7255 21.1087C92.7255 20.3247 92.8842 19.6387 93.2015 19.0507C93.5189 18.4533 93.9529 17.9913 94.5035 17.6647C95.0635 17.338 95.6889 17.1747 96.3795 17.1747C96.9769 17.1747 97.5322 17.3147 98.0455 17.5947C98.5589 17.8653 98.9509 18.2247 99.2215 18.6727V14.6127H100.51V24.9727H99.2215V23.5307C98.9695 23.988 98.5962 24.366 98.1015 24.6647C97.6069 24.954 97.0282 25.0987 96.3655 25.0987C95.6842 25.0987 95.0635 24.9307 94.5035 24.5947C93.9529 24.2587 93.5189 23.7873 93.2015 23.1807C92.8842 22.574 92.7255 21.8833 92.7255 21.1087ZM99.2215 21.1227C99.2215 20.544 99.1049 20.04 98.8715 19.6107C98.6382 19.1813 98.3209 18.8547 97.9195 18.6307C97.5275 18.3973 97.0935 18.2807 96.6175 18.2807C96.1415 18.2807 95.7075 18.3927 95.3155 18.6167C94.9235 18.8407 94.6109 19.1673 94.3775 19.5967C94.1442 20.026 94.0275 20.53 94.0275 21.1087C94.0275 21.6967 94.1442 22.21 94.3775 22.6487C94.6109 23.078 94.9235 23.4093 95.3155 23.6427C95.7075 23.8667 96.1415 23.9787 96.6175 23.9787C97.0935 23.9787 97.5275 23.8667 97.9195 23.6427C98.3209 23.4093 98.6382 23.078 98.8715 22.6487C99.1049 22.21 99.2215 21.7013 99.2215 21.1227Z" fill="#0CBC8B"/>
</g>
<ellipse cx="17.0312" cy="19" rx="5.00927" ry="5" fill="#0CBC8B"/>
<defs>
<filter id="filter0_d_2931_7790" x="29.5229" y="14.6133" width="74.9868" height="22" filterUnits="userSpaceOnUse" color-interpolation-filters="sRGB">
<feFlood flood-opacity="0" result="BackgroundImageFix"/>
<feColorMatrix in="SourceAlpha" type="matrix" values="0 0 0 0 0 0 0 0 0 0 0 0 0 0 0 0 0 0 127 0" result="hardAlpha"/>
<feOffset dy="4"/>
<feGaussianBlur stdDeviation="2"/>
<feComposite in2="hardAlpha" operator="out"/>
<feColorMatrix type="matrix" values="0 0 0 0 0 0 0 0 0 0 0 0 0 0 0 0 0 0 0.05 0"/>
<feBlend mode="normal" in2="BackgroundImageFix" result="effect1_dropShadow_2931_7790"/>
<feBlend mode="normal" in="SourceGraphic" in2="effect1_dropShadow_2931_7790" result="shape"/>
</filter>
</defs>
</svg>
