<svg width="122" height="41" viewBox="0 0 122 41" fill="none" xmlns="http://www.w3.org/2000/svg">
<rect width="121.224" height="41" rx="10" fill="#743B96" fill-opacity="0.15"/>
<g filter="url(#filter0_d_1126_10822)">
<path d="M40.311 18.098C40.311 18.91 40.031 19.5867 39.471 20.128C38.9203 20.66 38.0757 20.926 36.937 20.926H35.061V25H33.787V15.242H36.937C38.0383 15.242 38.8737 15.508 39.443 16.04C40.0217 16.572 40.311 17.258 40.311 18.098ZM36.937 19.876C37.6463 19.876 38.169 19.722 38.505 19.414C38.841 19.106 39.009 18.6673 39.009 18.098C39.009 16.894 38.3183 16.292 36.937 16.292H35.061V19.876H36.937ZM48.8944 20.87C48.8944 21.1127 48.8804 21.3693 48.8524 21.64H42.7204C42.7671 22.396 43.0237 22.9887 43.4904 23.418C43.9664 23.838 44.5404 24.048 45.2124 24.048C45.7631 24.048 46.2204 23.922 46.5844 23.67C46.9577 23.4087 47.2191 23.0633 47.3684 22.634H48.7404C48.5351 23.3713 48.1244 23.9733 47.5084 24.44C46.8924 24.8973 46.1271 25.126 45.2124 25.126C44.4844 25.126 43.8311 24.9627 43.2524 24.636C42.6831 24.3093 42.2351 23.8473 41.9084 23.25C41.5817 22.6433 41.4184 21.9433 41.4184 21.15C41.4184 20.3567 41.5771 19.6613 41.8944 19.064C42.2117 18.4667 42.6551 18.0093 43.2244 17.692C43.8031 17.3653 44.4657 17.202 45.2124 17.202C45.9404 17.202 46.5844 17.3607 47.1444 17.678C47.7044 17.9953 48.1337 18.434 48.4324 18.994C48.7404 19.5447 48.8944 20.17 48.8944 20.87ZM47.5784 20.604C47.5784 20.1187 47.4711 19.7033 47.2564 19.358C47.0417 19.0033 46.7477 18.7373 46.3744 18.56C46.0104 18.3733 45.6044 18.28 45.1564 18.28C44.5124 18.28 43.9617 18.4853 43.5044 18.896C43.0564 19.3067 42.7997 19.876 42.7344 20.604H47.5784ZM54.314 17.188C55.2474 17.188 56.0034 17.4727 56.582 18.042C57.1607 18.602 57.45 19.414 57.45 20.478V25H56.19V20.66C56.19 19.8947 55.9987 19.3113 55.616 18.91C55.2334 18.4993 54.7107 18.294 54.048 18.294C53.376 18.294 52.8394 18.504 52.438 18.924C52.046 19.344 51.85 19.9553 51.85 20.758V25H50.576V17.328H51.85V18.42C52.102 18.028 52.4427 17.7247 52.872 17.51C53.3107 17.2953 53.7914 17.188 54.314 17.188ZM59.0551 21.136C59.0551 20.352 59.2138 19.666 59.5311 19.078C59.8485 18.4807 60.2825 18.0187 60.8331 17.692C61.3931 17.3653 62.0185 17.202 62.7091 17.202C63.3065 17.202 63.8618 17.342 64.3751 17.622C64.8885 17.8927 65.2805 18.252 65.5511 18.7V14.64H66.8391V25H65.5511V23.558C65.2991 24.0153 64.9258 24.3933 64.4311 24.692C63.9365 24.9813 63.3578 25.126 62.6951 25.126C62.0138 25.126 61.3931 24.958 60.8331 24.622C60.2825 24.286 59.8485 23.8147 59.5311 23.208C59.2138 22.6013 59.0551 21.9107 59.0551 21.136ZM65.5511 21.15C65.5511 20.5713 65.4345 20.0673 65.2011 19.638C64.9678 19.2087 64.6505 18.882 64.2491 18.658C63.8571 18.4247 63.4231 18.308 62.9471 18.308C62.4711 18.308 62.0371 18.42 61.6451 18.644C61.2531 18.868 60.9405 19.1947 60.7071 19.624C60.4738 20.0533 60.3571 20.5573 60.3571 21.136C60.3571 21.724 60.4738 22.2373 60.7071 22.676C60.9405 23.1053 61.2531 23.4367 61.6451 23.67C62.0371 23.894 62.4711 24.006 62.9471 24.006C63.4231 24.006 63.8571 23.894 64.2491 23.67C64.6505 23.4367 64.9678 23.1053 65.2011 22.676C65.4345 22.2373 65.5511 21.7287 65.5511 21.15ZM69.6501 16.082C69.4074 16.082 69.2021 15.998 69.0341 15.83C68.8661 15.662 68.7821 15.4567 68.7821 15.214C68.7821 14.9713 68.8661 14.766 69.0341 14.598C69.2021 14.43 69.4074 14.346 69.6501 14.346C69.8834 14.346 70.0794 14.43 70.2381 14.598C70.4061 14.766 70.4901 14.9713 70.4901 15.214C70.4901 15.4567 70.4061 15.662 70.2381 15.83C70.0794 15.998 69.8834 16.082 69.6501 16.082ZM70.2661 17.328V25H68.9921V17.328H70.2661ZM76.1754 17.188C77.1087 17.188 77.8647 17.4727 78.4434 18.042C79.022 18.602 79.3114 19.414 79.3114 20.478V25H78.0514V20.66C78.0514 19.8947 77.86 19.3113 77.4774 18.91C77.0947 18.4993 76.572 18.294 75.9094 18.294C75.2374 18.294 74.7007 18.504 74.2994 18.924C73.9074 19.344 73.7114 19.9553 73.7114 20.758V25H72.4374V17.328H73.7114V18.42C73.9634 18.028 74.304 17.7247 74.7334 17.51C75.172 17.2953 75.6527 17.188 76.1754 17.188ZM84.5565 17.202C85.2191 17.202 85.7978 17.3467 86.2925 17.636C86.7965 17.9253 87.1698 18.2893 87.4125 18.728V17.328H88.7005V25.168C88.7005 25.868 88.5511 26.4887 88.2525 27.03C87.9538 27.5807 87.5245 28.01 86.9645 28.318C86.4138 28.626 85.7698 28.78 85.0325 28.78C84.0245 28.78 83.1845 28.542 82.5125 28.066C81.8405 27.59 81.4438 26.9413 81.3225 26.12H82.5825C82.7225 26.5867 83.0118 26.96 83.4505 27.24C83.8891 27.5293 84.4165 27.674 85.0325 27.674C85.7325 27.674 86.3018 27.4547 86.7405 27.016C87.1885 26.5773 87.4125 25.9613 87.4125 25.168V23.558C87.1605 24.006 86.7871 24.3793 86.2925 24.678C85.7978 24.9767 85.2191 25.126 84.5565 25.126C83.8751 25.126 83.2545 24.958 82.6945 24.622C82.1438 24.286 81.7098 23.8147 81.3925 23.208C81.0751 22.6013 80.9165 21.9107 80.9165 21.136C80.9165 20.352 81.0751 19.666 81.3925 19.078C81.7098 18.4807 82.1438 18.0187 82.6945 17.692C83.2545 17.3653 83.8751 17.202 84.5565 17.202ZM87.4125 21.15C87.4125 20.5713 87.2958 20.0673 87.0625 19.638C86.8291 19.2087 86.5118 18.882 86.1105 18.658C85.7185 18.4247 85.2845 18.308 84.8085 18.308C84.3325 18.308 83.8985 18.42 83.5065 18.644C83.1145 18.868 82.8018 19.1947 82.5685 19.624C82.3351 20.0533 82.2185 20.5573 82.2185 21.136C82.2185 21.724 82.3351 22.2373 82.5685 22.676C82.8018 23.1053 83.1145 23.4367 83.5065 23.67C83.8985 23.894 84.3325 24.006 84.8085 24.006C85.2845 24.006 85.7185 23.894 86.1105 23.67C86.5118 23.4367 86.8291 23.1053 87.0625 22.676C87.2958 22.2373 87.4125 21.7287 87.4125 21.15Z" fill="#743B96"/>
</g>
<ellipse cx="17.0308" cy="19" rx="5.00927" ry="5" fill="#743B96"/>
<defs>
<filter id="filter0_d_1126_10822" x="29.7871" y="14.3457" width="62.9141" height="22.4336" filterUnits="userSpaceOnUse" color-interpolation-filters="sRGB">
<feFlood flood-opacity="0" result="BackgroundImageFix"/>
<feColorMatrix in="SourceAlpha" type="matrix" values="0 0 0 0 0 0 0 0 0 0 0 0 0 0 0 0 0 0 127 0" result="hardAlpha"/>
<feOffset dy="4"/>
<feGaussianBlur stdDeviation="2"/>
<feComposite in2="hardAlpha" operator="out"/>
<feColorMatrix type="matrix" values="0 0 0 0 0 0 0 0 0 0 0 0 0 0 0 0 0 0 0.05 0"/>
<feBlend mode="normal" in2="BackgroundImageFix" result="effect1_dropShadow_1126_10822"/>
<feBlend mode="normal" in="SourceGraphic" in2="effect1_dropShadow_1126_10822" result="shape"/>
</filter>
</defs>
</svg>
