<svg width="122" height="41" viewBox="0 0 122 41" fill="none" xmlns="http://www.w3.org/2000/svg">
<rect x="0.291016" width="121.224" height="41" rx="10" fill="#0CBC8B" fill-opacity="0.15"/>
<g filter="url(#filter0_d_1126_10740)">
<path d="M37.5236 25.0707C36.8796 25.0707 36.3009 24.9587 35.7876 24.7347C35.2836 24.5013 34.8869 24.184 34.5976 23.7827C34.3082 23.372 34.1589 22.9007 34.1496 22.3687H35.5076C35.5542 22.826 35.7409 23.2133 36.0676 23.5307C36.4036 23.8387 36.8889 23.9927 37.5236 23.9927C38.1302 23.9927 38.6062 23.8433 38.9516 23.5447C39.3062 23.2367 39.4836 22.8447 39.4836 22.3687C39.4836 21.9953 39.3809 21.692 39.1756 21.4587C38.9702 21.2253 38.7136 21.048 38.4056 20.9267C38.0976 20.8053 37.6822 20.6747 37.1596 20.5347C36.5156 20.3667 35.9976 20.1987 35.6056 20.0307C35.2229 19.8627 34.8916 19.6013 34.6116 19.2467C34.3409 18.8827 34.2056 18.3973 34.2056 17.7907C34.2056 17.2587 34.3409 16.7873 34.6116 16.3767C34.8822 15.966 35.2602 15.6487 35.7456 15.4247C36.2402 15.2007 36.8049 15.0887 37.4396 15.0887C38.3542 15.0887 39.1009 15.3173 39.6796 15.7747C40.2676 16.232 40.5989 16.8387 40.6736 17.5947H39.2736C39.2269 17.2213 39.0309 16.8947 38.6856 16.6147C38.3402 16.3253 37.8829 16.1807 37.3136 16.1807C36.7816 16.1807 36.3476 16.3207 36.0116 16.6007C35.6756 16.8713 35.5076 17.254 35.5076 17.7487C35.5076 18.1033 35.6056 18.3927 35.8016 18.6167C36.0069 18.8407 36.2542 19.0133 36.5436 19.1347C36.8422 19.2467 37.2576 19.3773 37.7896 19.5267C38.4336 19.704 38.9516 19.8813 39.3436 20.0587C39.7356 20.2267 40.0716 20.4927 40.3516 20.8567C40.6316 21.2113 40.7716 21.6967 40.7716 22.3127C40.7716 22.7887 40.6456 23.2367 40.3936 23.6567C40.1416 24.0767 39.7682 24.4173 39.2736 24.6787C38.7789 24.94 38.1956 25.0707 37.5236 25.0707ZM49.4504 17.3007V24.9727H48.1764V23.8387C47.9337 24.2307 47.593 24.5387 47.1544 24.7627C46.725 24.9773 46.249 25.0847 45.7264 25.0847C45.129 25.0847 44.5924 24.9633 44.1164 24.7207C43.6404 24.4687 43.2624 24.0953 42.9824 23.6007C42.7117 23.106 42.5764 22.504 42.5764 21.7947V17.3007H43.8364V21.6267C43.8364 22.3827 44.0277 22.966 44.4104 23.3767C44.793 23.778 45.3157 23.9787 45.9784 23.9787C46.6597 23.9787 47.1964 23.7687 47.5884 23.3487C47.9804 22.9287 48.1764 22.3173 48.1764 21.5147V17.3007H49.4504ZM51.1254 21.1227C51.1254 20.3293 51.2841 19.6387 51.6014 19.0507C51.9188 18.4533 52.3574 17.9913 52.9174 17.6647C53.4868 17.338 54.1354 17.1747 54.8634 17.1747C55.8061 17.1747 56.5808 17.4033 57.1874 17.8607C57.8034 18.318 58.2094 18.9527 58.4054 19.7647H57.0334C56.9028 19.298 56.6461 18.9293 56.2634 18.6587C55.8901 18.388 55.4234 18.2527 54.8634 18.2527C54.1354 18.2527 53.5474 18.5047 53.0994 19.0087C52.6514 19.5033 52.4274 20.208 52.4274 21.1227C52.4274 22.0467 52.6514 22.7607 53.0994 23.2647C53.5474 23.7687 54.1354 24.0207 54.8634 24.0207C55.4234 24.0207 55.8901 23.89 56.2634 23.6287C56.6368 23.3673 56.8934 22.994 57.0334 22.5087H58.4054C58.2001 23.2927 57.7894 23.9227 57.1734 24.3987C56.5574 24.8653 55.7874 25.0987 54.8634 25.0987C54.1354 25.0987 53.4868 24.9353 52.9174 24.6087C52.3574 24.282 51.9188 23.82 51.6014 23.2227C51.2841 22.6253 51.1254 21.9253 51.1254 21.1227ZM59.6293 21.1227C59.6293 20.3293 59.788 19.6387 60.1053 19.0507C60.4227 18.4533 60.8613 17.9913 61.4213 17.6647C61.9907 17.338 62.6393 17.1747 63.3673 17.1747C64.31 17.1747 65.0847 17.4033 65.6913 17.8607C66.3073 18.318 66.7133 18.9527 66.9093 19.7647H65.5373C65.4067 19.298 65.15 18.9293 64.7673 18.6587C64.394 18.388 63.9273 18.2527 63.3673 18.2527C62.6393 18.2527 62.0513 18.5047 61.6033 19.0087C61.1553 19.5033 60.9313 20.208 60.9313 21.1227C60.9313 22.0467 61.1553 22.7607 61.6033 23.2647C62.0513 23.7687 62.6393 24.0207 63.3673 24.0207C63.9273 24.0207 64.394 23.89 64.7673 23.6287C65.1407 23.3673 65.3973 22.994 65.5373 22.5087H66.9093C66.704 23.2927 66.2933 23.9227 65.6773 24.3987C65.0613 24.8653 64.2913 25.0987 63.3673 25.0987C62.6393 25.0987 61.9907 24.9353 61.4213 24.6087C60.8613 24.282 60.4227 23.82 60.1053 23.2227C59.788 22.6253 59.6293 21.9253 59.6293 21.1227ZM75.6093 20.8427C75.6093 21.0853 75.5953 21.342 75.5673 21.6127H69.4353C69.4819 22.3687 69.7386 22.9613 70.2053 23.3907C70.6813 23.8107 71.2553 24.0207 71.9273 24.0207C72.4779 24.0207 72.9353 23.8947 73.2993 23.6427C73.6726 23.3813 73.9339 23.036 74.0833 22.6067H75.4553C75.2499 23.344 74.8393 23.946 74.2233 24.4127C73.6073 24.87 72.8419 25.0987 71.9273 25.0987C71.1993 25.0987 70.5459 24.9353 69.9673 24.6087C69.3979 24.282 68.9499 23.82 68.6233 23.2227C68.2966 22.616 68.1333 21.916 68.1333 21.1227C68.1333 20.3293 68.2919 19.634 68.6093 19.0367C68.9266 18.4393 69.3699 17.982 69.9393 17.6647C70.5179 17.338 71.1806 17.1747 71.9273 17.1747C72.6553 17.1747 73.2993 17.3333 73.8593 17.6507C74.4193 17.968 74.8486 18.4067 75.1473 18.9667C75.4553 19.5173 75.6093 20.1427 75.6093 20.8427ZM74.2933 20.5767C74.2933 20.0913 74.1859 19.676 73.9713 19.3307C73.7566 18.976 73.4626 18.71 73.0893 18.5327C72.7253 18.346 72.3193 18.2527 71.8713 18.2527C71.2273 18.2527 70.6766 18.458 70.2193 18.8687C69.7713 19.2793 69.5146 19.8487 69.4493 20.5767H74.2933ZM80.0069 25.0987C79.4189 25.0987 78.8916 25.0007 78.4249 24.8047C77.9582 24.5993 77.5896 24.3193 77.3189 23.9647C77.0482 23.6007 76.8989 23.1853 76.8709 22.7187H78.1869C78.2242 23.1013 78.4016 23.414 78.7189 23.6567C79.0456 23.8993 79.4702 24.0207 79.9929 24.0207C80.4782 24.0207 80.8609 23.9133 81.1409 23.6987C81.4209 23.484 81.5609 23.2133 81.5609 22.8867C81.5609 22.5507 81.4116 22.3033 81.1129 22.1447C80.8142 21.9767 80.3522 21.8133 79.7269 21.6547C79.1576 21.5053 78.6909 21.356 78.3269 21.2067C77.9722 21.048 77.6642 20.8193 77.4029 20.5207C77.1509 20.2127 77.0249 19.8113 77.0249 19.3167C77.0249 18.9247 77.1416 18.5653 77.3749 18.2387C77.6082 17.912 77.9396 17.6553 78.3689 17.4687C78.7982 17.2727 79.2882 17.1747 79.8389 17.1747C80.6882 17.1747 81.3742 17.3893 81.8969 17.8187C82.4196 18.248 82.6996 18.836 82.7369 19.5827H81.4629C81.4349 19.1813 81.2716 18.8593 80.9729 18.6167C80.6836 18.374 80.2916 18.2527 79.7969 18.2527C79.3396 18.2527 78.9756 18.3507 78.7049 18.5467C78.4342 18.7427 78.2989 18.9993 78.2989 19.3167C78.2989 19.5687 78.3782 19.7787 78.5369 19.9467C78.7049 20.1053 78.9102 20.236 79.1529 20.3387C79.4049 20.432 79.7502 20.5393 80.1889 20.6607C80.7396 20.81 81.1876 20.9593 81.5329 21.1087C81.8782 21.2487 82.1722 21.4633 82.4149 21.7527C82.6669 22.042 82.7976 22.42 82.8069 22.8867C82.8069 23.3067 82.6902 23.6847 82.4569 24.0207C82.2236 24.3567 81.8922 24.6227 81.4629 24.8187C81.0429 25.0053 80.5576 25.0987 80.0069 25.0987ZM87.3213 25.0987C86.7333 25.0987 86.206 25.0007 85.7393 24.8047C85.2727 24.5993 84.904 24.3193 84.6333 23.9647C84.3627 23.6007 84.2133 23.1853 84.1853 22.7187H85.5013C85.5387 23.1013 85.716 23.414 86.0333 23.6567C86.36 23.8993 86.7847 24.0207 87.3073 24.0207C87.7927 24.0207 88.1753 23.9133 88.4553 23.6987C88.7353 23.484 88.8753 23.2133 88.8753 22.8867C88.8753 22.5507 88.726 22.3033 88.4273 22.1447C88.1287 21.9767 87.6667 21.8133 87.0413 21.6547C86.472 21.5053 86.0053 21.356 85.6413 21.2067C85.2867 21.048 84.9787 20.8193 84.7173 20.5207C84.4653 20.2127 84.3393 19.8113 84.3393 19.3167C84.3393 18.9247 84.456 18.5653 84.6893 18.2387C84.9227 17.912 85.254 17.6553 85.6833 17.4687C86.1127 17.2727 86.6027 17.1747 87.1533 17.1747C88.0027 17.1747 88.6887 17.3893 89.2113 17.8187C89.734 18.248 90.014 18.836 90.0513 19.5827H88.7773C88.7493 19.1813 88.586 18.8593 88.2873 18.6167C87.998 18.374 87.606 18.2527 87.1113 18.2527C86.654 18.2527 86.29 18.3507 86.0193 18.5467C85.7487 18.7427 85.6133 18.9993 85.6133 19.3167C85.6133 19.5687 85.6927 19.7787 85.8513 19.9467C86.0193 20.1053 86.2247 20.236 86.4673 20.3387C86.7193 20.432 87.0647 20.5393 87.5033 20.6607C88.054 20.81 88.502 20.9593 88.8473 21.1087C89.1927 21.2487 89.4867 21.4633 89.7293 21.7527C89.9813 22.042 90.112 22.42 90.1213 22.8867C90.1213 23.3067 90.0047 23.6847 89.7713 24.0207C89.538 24.3567 89.2067 24.6227 88.7773 24.8187C88.3573 25.0053 87.872 25.0987 87.3213 25.0987ZM95.0418 18.3507H93.4318V24.9727H92.1578V18.3507H91.1638V17.3007H92.1578V16.7547C92.1578 15.896 92.3771 15.2707 92.8158 14.8787C93.2638 14.4773 93.9778 14.2767 94.9578 14.2767V15.3407C94.3978 15.3407 94.0011 15.4527 93.7678 15.6767C93.5438 15.8913 93.4318 16.2507 93.4318 16.7547V17.3007H95.0418V18.3507ZM103.331 17.3007V24.9727H102.057V23.8387C101.815 24.2307 101.474 24.5387 101.035 24.7627C100.606 24.9773 100.13 25.0847 99.6072 25.0847C99.0099 25.0847 98.4732 24.9633 97.9972 24.7207C97.5212 24.4687 97.1432 24.0953 96.8632 23.6007C96.5926 23.106 96.4572 22.504 96.4572 21.7947V17.3007H97.7172V21.6267C97.7172 22.3827 97.9086 22.966 98.2912 23.3767C98.6739 23.778 99.1966 23.9787 99.8592 23.9787C100.541 23.9787 101.077 23.7687 101.469 23.3487C101.861 22.9287 102.057 22.3173 102.057 21.5147V17.3007H103.331ZM106.756 14.6127V24.9727H105.482V14.6127H106.756Z" fill="#0CBC8B"/>
</g>
<ellipse cx="17.3218" cy="19" rx="5.00927" ry="5" fill="#0CBC8B"/>
<defs>
<filter id="filter0_d_1126_10740" x="30.1504" y="14.2773" width="80.6055" height="18.8223" filterUnits="userSpaceOnUse" color-interpolation-filters="sRGB">
<feFlood flood-opacity="0" result="BackgroundImageFix"/>
<feColorMatrix in="SourceAlpha" type="matrix" values="0 0 0 0 0 0 0 0 0 0 0 0 0 0 0 0 0 0 127 0" result="hardAlpha"/>
<feOffset dy="4"/>
<feGaussianBlur stdDeviation="2"/>
<feComposite in2="hardAlpha" operator="out"/>
<feColorMatrix type="matrix" values="0 0 0 0 0 0 0 0 0 0 0 0 0 0 0 0 0 0 0.05 0"/>
<feBlend mode="normal" in2="BackgroundImageFix" result="effect1_dropShadow_1126_10740"/>
<feBlend mode="normal" in="SourceGraphic" in2="effect1_dropShadow_1126_10740" result="shape"/>
</filter>
</defs>
</svg>
