<svg width="48" height="48" viewBox="0 0 48 48" fill="none" xmlns="http://www.w3.org/2000/svg">
<path d="M27.8004 0.599609C30.7708 0.599609 33.6196 1.77961 35.72 3.88001C37.8204 5.98042 39.0004 8.82918 39.0004 11.7996C39.0004 14.77 37.8204 17.6188 35.72 19.7192C33.6196 21.8196 30.7708 22.9996 27.8004 22.9996C24.83 22.9996 21.9812 21.8196 19.8808 19.7192C17.7804 17.6188 16.6004 14.77 16.6004 11.7996C16.6004 8.82918 17.7804 5.98042 19.8808 3.88001C21.9812 1.77961 24.83 0.599609 27.8004 0.599609ZM41.7752 25.7996C42.5126 25.7967 43.2434 25.9393 43.9255 26.2194C44.6077 26.4995 45.2279 26.9114 45.7505 27.4317C46.2731 27.952 46.6878 28.5703 46.971 29.2512C47.2541 29.9321 47.4 30.6622 47.4004 31.3996C47.4004 36.1344 45.068 39.7044 41.4224 42.0312C37.8328 44.3188 32.9944 45.3996 27.8004 45.3996C26.6524 45.3996 25.5156 45.3464 24.4124 45.24C26.6106 42.5083 27.8063 39.1059 27.8004 35.5996C27.8004 31.8756 26.4788 28.4596 24.2808 25.7996H41.7724H41.7752ZM23.2224 33.9756C22.4993 33.7907 21.8206 33.4631 21.2259 33.012C20.6313 32.561 20.1328 31.9957 19.7598 31.3493C19.3868 30.7029 19.1467 29.9884 19.0537 29.2479C18.9608 28.5074 19.0167 27.7558 19.2184 27.0372L19.6524 25.4776C18.9412 24.9316 18.1712 24.464 17.3536 24.086L16.4072 25.0884C15.8839 25.6437 15.2526 26.0861 14.5522 26.3886C13.8517 26.6912 13.0968 26.8473 12.3338 26.8476C11.5708 26.8479 10.8158 26.6922 10.1151 26.3902C9.41444 26.0881 8.78288 25.6461 8.25919 25.0912L7.35199 24.128C6.51759 24.52 5.73359 25.01 5.01399 25.5784L5.36679 26.7628C5.58522 27.4937 5.65202 28.2615 5.56309 29.0191C5.47416 29.7768 5.23138 30.5083 4.84963 31.1687C4.46789 31.8291 3.95525 32.4046 3.34313 32.8599C2.73102 33.3151 2.03235 33.6405 1.28999 33.816L0.312794 34.0456C0.200485 34.991 0.191097 35.9458 0.284794 36.8932L1.57279 37.2208C2.29639 37.4054 2.97577 37.7329 3.57093 38.184C4.1661 38.635 4.66503 39.2006 5.03838 39.8474C5.41172 40.4941 5.65193 41.209 5.74487 41.95C5.83782 42.691 5.78162 43.4431 5.57959 44.162L5.1428 45.7188C5.85614 46.2672 6.62804 46.7348 7.44439 47.1132L8.39079 46.1108C8.91388 45.5558 9.54482 45.1135 10.2449 44.811C10.945 44.5085 11.6995 44.3522 12.4622 44.3517C13.2248 44.3512 13.9796 44.5064 14.6801 44.808C15.3806 45.1095 16.0121 45.5509 16.536 46.1052L17.446 47.0684C18.278 46.6754 19.0624 46.1888 19.784 45.618L19.4284 44.4364C19.2095 43.7053 19.1424 42.9372 19.2311 42.1793C19.3198 41.4213 19.5625 40.6895 19.9443 40.0287C20.3261 39.368 20.8389 38.7922 21.4512 38.3368C22.0636 37.8814 22.7625 37.5559 23.5052 37.3804L24.4852 37.1508C24.597 36.2063 24.6064 35.2525 24.5132 34.306L23.2224 33.9756ZM9.60039 35.5996C9.60039 34.857 9.89539 34.1448 10.4205 33.6197C10.9456 33.0946 11.6578 32.7996 12.4004 32.7996C13.143 32.7996 13.8552 33.0946 14.3803 33.6197C14.9054 34.1448 15.2004 34.857 15.2004 35.5996C15.2004 36.3422 14.9054 37.0544 14.3803 37.5795C13.8552 38.1046 13.143 38.3996 12.4004 38.3996C11.6578 38.3996 10.9456 38.1046 10.4205 37.5795C9.89539 37.0544 9.60039 36.3422 9.60039 35.5996Z" fill="black"/>
</svg>
