<svg width="54" height="55" viewBox="0 0 54 55" fill="none" xmlns="http://www.w3.org/2000/svg">
<g filter="url(#filter0_d_1205_13536)">
<path d="M25.1921 0.721994C24.9466 0.718125 24.7002 0.836655 24.5044 1.09589C24.1259 1.59706 24.1194 2.43637 24.4902 2.94935L31.5736 12.7492L24.342 22.3234C23.9635 22.8246 23.9571 23.6639 24.3279 24.1769C24.6986 24.6898 25.3188 24.6996 25.6973 24.1984L33.6207 13.7083C33.9993 13.2071 34.0057 12.3678 33.6349 11.8548L25.8739 1.11747C25.6821 0.85213 25.4376 0.725863 25.1921 0.721994Z" fill="#8C8383"/>
</g>
<g filter="url(#filter1_d_1205_13536)">
<mask id="path-2-inside-1_1205_13536" fill="white">
<path d="M32.7324 11.4639L10.9887 11.1159C10.459 11.1074 10.0153 11.6948 10.0099 12.4115C10.0045 13.1283 10.4393 13.7297 10.969 13.7382L32.7127 14.0861C33.2424 14.0946 33.6861 13.5073 33.6915 12.7905C33.6969 12.0738 33.2621 11.4723 32.7324 11.4639Z"/>
</mask>
<path d="M32.7324 11.4639L10.9887 11.1159C10.459 11.1074 10.0153 11.6948 10.0099 12.4115C10.0045 13.1283 10.4393 13.7297 10.969 13.7382L32.7127 14.0861C33.2424 14.0946 33.6861 13.5073 33.6915 12.7905C33.6969 12.0738 33.2621 11.4723 32.7324 11.4639Z" fill="#8C8383"/>
<path d="M32.6872 17.4637L10.9435 17.1157L11.0339 5.11606L32.7776 5.46403L32.6872 17.4637ZM10.9435 17.1157C13.0658 17.1497 14.4611 15.9812 15.1003 15.1351C15.7536 14.2704 16.0029 13.3287 16.0091 12.5075L4.01064 12.3155C4.02223 10.7776 4.49613 9.1838 5.50505 7.84837C6.49994 6.53151 8.38196 5.07362 11.0339 5.11606L10.9435 17.1157ZM16.0091 12.5075C16.0153 11.6864 15.7802 10.7369 15.1401 9.85149C14.5138 8.98512 13.1364 7.7723 11.0142 7.73833L10.9238 19.738C8.27182 19.6956 6.41221 18.1778 5.43739 16.8294C4.44884 15.462 3.99906 13.8534 4.01064 12.3155L16.0091 12.5075ZM11.0142 7.73833L32.7579 8.08631L32.6675 20.086L10.9238 19.738L11.0142 7.73833ZM32.7579 8.08631C30.6356 8.05235 29.2403 9.2208 28.6011 10.0669C27.9478 10.9316 27.6985 11.8733 27.6923 12.6945L39.6907 12.8865C39.6792 14.4244 39.2053 16.0182 38.1963 17.3537C37.2015 18.6705 35.3194 20.1284 32.6675 20.086L32.7579 8.08631ZM27.6923 12.6945C27.6861 13.5157 27.9212 14.4651 28.5613 15.3505C29.1876 16.2169 30.565 17.4297 32.6872 17.4637L32.7776 5.46403C35.4296 5.50647 37.2892 7.02424 38.264 8.37263C39.2526 9.74003 39.7023 11.3486 39.6907 12.8865L27.6923 12.6945Z" fill="#8C8383" mask="url(#path-2-inside-1_1205_13536)"/>
</g>
<defs>
<filter id="filter0_d_1205_13536" x="14.0537" y="0.722656" width="39.8555" height="53.8457" filterUnits="userSpaceOnUse" color-interpolation-filters="sRGB">
<feFlood flood-opacity="0" result="BackgroundImageFix"/>
<feColorMatrix in="SourceAlpha" type="matrix" values="0 0 0 0 0 0 0 0 0 0 0 0 0 0 0 0 0 0 127 0" result="hardAlpha"/>
<feOffset dx="5" dy="15"/>
<feGaussianBlur stdDeviation="7.5"/>
<feComposite in2="hardAlpha" operator="out"/>
<feColorMatrix type="matrix" values="0 0 0 0 0 0 0 0 0 0 0 0 0 0 0 0 0 0 0.25 0"/>
<feBlend mode="normal" in2="BackgroundImageFix" result="effect1_dropShadow_1205_13536"/>
<feBlend mode="normal" in="SourceGraphic" in2="effect1_dropShadow_1205_13536" result="shape"/>
</filter>
<filter id="filter1_d_1205_13536" x="0.00976562" y="11.1152" width="53.6816" height="32.9707" filterUnits="userSpaceOnUse" color-interpolation-filters="sRGB">
<feFlood flood-opacity="0" result="BackgroundImageFix"/>
<feColorMatrix in="SourceAlpha" type="matrix" values="0 0 0 0 0 0 0 0 0 0 0 0 0 0 0 0 0 0 127 0" result="hardAlpha"/>
<feOffset dx="5" dy="15"/>
<feGaussianBlur stdDeviation="7.5"/>
<feComposite in2="hardAlpha" operator="out"/>
<feColorMatrix type="matrix" values="0 0 0 0 0 0 0 0 0 0 0 0 0 0 0 0 0 0 0.25 0"/>
<feBlend mode="normal" in2="BackgroundImageFix" result="effect1_dropShadow_1205_13536"/>
<feBlend mode="normal" in="SourceGraphic" in2="effect1_dropShadow_1205_13536" result="shape"/>
</filter>
</defs>
</svg>
