<svg width="21" height="15" viewBox="0 0 21 15" fill="none" xmlns="http://www.w3.org/2000/svg">
<path d="M6.125 11.25C6.29076 11.25 6.44973 11.3158 6.56694 11.4331C6.68415 11.5503 6.75 11.7092 6.75 11.875C6.75 12.0408 6.68415 12.1997 6.56694 12.3169C6.44973 12.4342 6.29076 12.5 6.125 12.5H3.625C3.45924 12.5 3.30027 12.4342 3.18306 12.3169C3.06585 12.1997 3 12.0408 3 11.875C3 11.7092 3.06585 11.5503 3.18306 11.4331C3.30027 11.3158 3.45924 11.25 3.625 11.25H6.125ZM20.5 3.125C20.5 2.2962 20.1708 1.50134 19.5847 0.915291C18.9987 0.32924 18.2038 0 17.375 0H3.625C2.7962 0 2.00134 0.32924 1.41529 0.915291C0.829241 1.50134 0.5 2.2962 0.5 3.125V11.875C0.5 12.7038 0.829241 13.4987 1.41529 14.0847C2.00134 14.6708 2.7962 15 3.625 15H17.375C18.2038 15 18.9987 14.6708 19.5847 14.0847C20.1708 13.4987 20.5 12.7038 20.5 11.875V3.125ZM19.25 11.875C19.25 12.3723 19.0525 12.8492 18.7008 13.2008C18.3492 13.5525 17.8723 13.75 17.375 13.75H3.625C3.12772 13.75 2.65081 13.5525 2.29918 13.2008C1.94754 12.8492 1.75 12.3723 1.75 11.875V6.25H19.25V11.875ZM1.75 3.125C1.75 2.62772 1.94754 2.15081 2.29918 1.79917C2.65081 1.44754 3.12772 1.25 3.625 1.25H17.375C17.8723 1.25 18.3492 1.44754 18.7008 1.79917C19.0525 2.15081 19.25 2.62772 19.25 3.125V5H1.75V3.125Z" fill="#525252"/>
</svg>
