<svg width="17" height="21" viewBox="0 0 17 21" fill="none" xmlns="http://www.w3.org/2000/svg">
<path fill-rule="evenodd" clip-rule="evenodd" d="M16.6665 16.9521C16.6665 20.3854 11.9582 20.7823 8.41755 20.7823L8.16417 20.7821C5.90838 20.7766 0.166504 20.6342 0.166504 16.9313C0.166504 13.568 4.68562 13.1185 8.1993 13.1016L8.67091 13.1013C10.9265 13.1068 16.6665 13.2492 16.6665 16.9521ZM8.41755 14.6636C3.979 14.6636 1.729 15.4261 1.729 16.9313C1.729 18.45 3.979 19.2198 8.41755 19.2198C12.855 19.2198 15.104 18.4573 15.104 16.9521C15.104 15.4334 12.855 14.6636 8.41755 14.6636ZM8.41755 0.0839844C11.4675 0.0839844 13.9478 2.56523 13.9478 5.61523C13.9478 8.66523 11.4675 11.1454 8.41755 11.1454H8.38421C5.34046 11.1361 2.87484 8.65378 2.88522 5.61211C2.88522 2.56523 5.3665 0.0839844 8.41755 0.0839844ZM8.41755 1.57148C6.18734 1.57148 4.37273 3.38503 4.37273 5.61523C4.36546 7.83815 6.1665 9.65065 8.38734 9.65899L8.41755 10.4027V9.65899C10.6467 9.65899 12.4603 7.8444 12.4603 5.61523C12.4603 3.38503 10.6467 1.57148 8.41755 1.57148Z" fill="#525252"/>
</svg>
