<svg width="21" height="20" viewBox="0 0 21 20" fill="none" xmlns="http://www.w3.org/2000/svg">
<path fill-rule="evenodd" clip-rule="evenodd" d="M5.58349 16.9519C6.29749 16.9519 6.87849 17.5319 6.87849 18.2459C6.87849 18.9599 6.29749 19.5409 5.58349 19.5409C4.86949 19.5409 4.28949 18.9599 4.28949 18.2459C4.28949 17.5319 4.86949 16.9519 5.58349 16.9519ZM16.8638 16.9519C17.5788 16.9519 18.1598 17.5319 18.1598 18.2459C18.1598 18.9599 17.5788 19.5409 16.8638 19.5409C16.1498 19.5409 15.5698 18.9599 15.5698 18.2459C15.5698 17.5319 16.1498 16.9519 16.8638 16.9519ZM1.30769 0.00948704L3.38769 0.369487C3.72269 0.428487 3.97769 0.706487 4.00669 1.04649L4.24169 3.84749L5.11554 3.84786C5.25814 3.84793 5.39923 3.84799 5.53881 3.84805L7.14312 3.84882C7.271 3.84888 7.39745 3.84894 7.52248 3.84901L9.29388 3.84998C9.40516 3.85004 9.51511 3.85011 9.62374 3.85018L10.8651 3.85097C10.9634 3.85103 11.0605 3.8511 11.1564 3.85117L12.2482 3.85197C12.3344 3.85204 12.4194 3.85211 12.5033 3.85217L13.4552 3.85299C13.5301 3.85306 13.6039 3.85313 13.6766 3.8532L14.3022 3.85382C14.3686 3.85389 14.434 3.85396 14.4983 3.85403L15.2229 3.85487C15.2794 3.85494 15.335 3.85501 15.3896 3.85508L16.0014 3.85594C16.0488 3.85601 16.0953 3.85608 16.1411 3.85615L16.5299 3.8568C16.5706 3.85687 16.6105 3.85695 16.6497 3.85702L17.0828 3.8579C17.1159 3.85797 17.1483 3.85804 17.18 3.85812L17.4466 3.85878C17.4742 3.85886 17.5011 3.85893 17.5274 3.85901L17.8131 3.85991C17.8346 3.85998 17.8554 3.86006 17.8757 3.86014L18.0435 3.86082C18.0605 3.8609 18.0771 3.86097 18.0931 3.86105L18.2628 3.86197C18.2752 3.86205 18.2871 3.86213 18.2985 3.86221L18.3911 3.86291C18.4002 3.86299 18.4089 3.86307 18.4173 3.86314L18.4839 3.86385C18.4904 3.86393 18.4965 3.86401 18.5024 3.86409L18.5477 3.86481C18.5519 3.86489 18.556 3.86497 18.5598 3.86505L18.5884 3.86578C18.5911 3.86586 18.5935 3.86594 18.5958 3.86602L18.6165 3.867C18.6178 3.86708 18.619 3.86716 18.6201 3.86725C18.6298 3.86815 18.6313 3.86832 18.6327 3.86849C19.1897 3.94949 19.6797 4.24049 20.0137 4.68849C20.3477 5.13549 20.4877 5.68649 20.4077 6.23849L19.4587 12.7965C19.2797 14.0445 18.1957 14.9855 16.9357 14.9855H6.01469C4.69769 14.9855 3.58269 13.9575 3.47569 12.6425L2.55969 1.74849L1.05269 1.48849C0.643694 1.41649 0.370694 1.02949 0.440694 0.620487C0.512694 0.211487 0.907694 -0.054513 1.30769 0.00948704ZM4.91493 5.34783L4.36769 5.34749L4.97069 12.5195C5.01469 13.0715 5.46569 13.4855 6.01669 13.4855H16.9337C17.4547 13.4855 17.8997 13.0975 17.9737 12.5825L18.9237 6.02349C18.9457 5.86749 18.9067 5.71149 18.8117 5.58549C18.7177 5.45849 18.5797 5.37649 18.4237 5.35449C18.4165 5.35476 18.3992 5.35502 18.3724 5.35524L18.2636 5.35587C18.2409 5.35596 18.2158 5.35605 18.1886 5.35613L17.6221 5.35699C17.5743 5.35702 17.5246 5.35705 17.4731 5.35708L16.1411 5.35702C16.0668 5.357 15.991 5.35696 15.914 5.35693L14.3939 5.35601C14.3028 5.35594 14.2107 5.35587 14.1177 5.3558L13.2576 5.35511C13.1596 5.35503 13.0609 5.35495 12.9615 5.35486L12.0504 5.35406C11.9475 5.35397 11.8442 5.35387 11.7403 5.35378L11.1128 5.3532C11.0075 5.35311 10.9018 5.35301 10.796 5.35291L9.83829 5.35201C9.73151 5.35191 9.62466 5.35181 9.51781 5.35171L8.87716 5.35112C8.77054 5.35102 8.66405 5.35092 8.55774 5.35082L7.92253 5.35025C7.81719 5.35015 7.71215 5.35006 7.60748 5.34997L6.67697 5.34917C6.57505 5.34908 6.47367 5.349 6.37291 5.34892L5.19698 5.34802C5.10209 5.34795 5.00805 5.34789 4.91493 5.34783ZM15.3276 7.54379C15.7416 7.54379 16.0776 7.87979 16.0776 8.29379C16.0776 8.70779 15.7416 9.04379 15.3276 9.04379H12.5556C12.1406 9.04379 11.8056 8.70779 11.8056 8.29379C11.8056 7.87979 12.1406 7.54379 12.5556 7.54379H15.3276Z" fill="black"/>
</svg>
