<svg width="56" height="56" viewBox="0 0 56 56" fill="none" xmlns="http://www.w3.org/2000/svg">
<path d="M36.75 10.5C37.2141 10.5 37.6592 10.6844 37.9874 11.0126C38.3156 11.3408 38.5 11.7859 38.5 12.25C38.5 12.7141 38.3156 13.1592 37.9874 13.4874C37.6592 13.8156 37.2141 14 36.75 14H19.25C18.7859 14 18.3408 13.8156 18.0126 13.4874C17.6844 13.1592 17.5 12.7141 17.5 12.25C17.5 11.7859 17.6844 11.3408 18.0126 11.0126C18.3408 10.6844 18.7859 10.5 19.25 10.5H36.75ZM38.5 36.75C38.5 36.2859 38.3156 35.8407 37.9874 35.5126C37.6592 35.1844 37.2141 35 36.75 35H19.25C18.7859 35 18.3408 35.1844 18.0126 35.5126C17.6844 35.8407 17.5 36.2859 17.5 36.75C17.5 37.2141 17.6844 37.6592 18.0126 37.9874C18.3408 38.3156 18.7859 38.5 19.25 38.5H36.75C37.2141 38.5 37.6592 38.3156 37.9874 37.9874C38.3156 37.6592 38.5 37.2141 38.5 36.75ZM36.75 42C37.2141 42 37.6592 42.1844 37.9874 42.5126C38.3156 42.8407 38.5 43.2859 38.5 43.75C38.5 44.2141 38.3156 44.6592 37.9874 44.9874C37.6592 45.3156 37.2141 45.5 36.75 45.5H19.25C18.7859 45.5 18.3408 45.3156 18.0126 44.9874C17.6844 44.6592 17.5 44.2141 17.5 43.75C17.5 43.2859 17.6844 42.8407 18.0126 42.5126C18.3408 42.1844 18.7859 42 19.25 42H36.75ZM45.5 8.75C45.5 6.42936 44.5781 4.20376 42.9372 2.56282C41.2962 0.921872 39.0706 0 36.75 0H19.25C16.9294 0 14.7038 0.921872 13.0628 2.56282C11.4219 4.20376 10.5 6.42936 10.5 8.75V10.5H7C5.14349 10.5 3.36301 11.2375 2.05026 12.5503C0.737503 13.863 3.8147e-06 15.6435 3.8147e-06 17.5V42C3.8147e-06 43.8565 0.737503 45.637 2.05026 46.9497C3.36301 48.2625 5.14349 49 7 49H10.675C11.0784 50.9764 12.1523 52.7527 13.7149 54.0283C15.2775 55.3039 17.2329 56.0004 19.25 56H36.75C38.7671 56.0004 40.7225 55.3039 42.2851 54.0283C43.8477 52.7527 44.9216 50.9764 45.325 49H49C50.8565 49 52.637 48.2625 53.9497 46.9497C55.2625 45.637 56 43.8565 56 42V17.5C56 15.6435 55.2625 13.863 53.9497 12.5503C52.637 11.2375 50.8565 10.5 49 10.5H45.5V8.75ZM10.5 45.5H7C6.07175 45.5 5.1815 45.1312 4.52513 44.4749C3.86875 43.8185 3.5 42.9283 3.5 42V17.5C3.5 16.5717 3.86875 15.6815 4.52513 15.0251C5.1815 14.3687 6.07175 14 7 14H10.5V45.5ZM45.5 14H49C49.9283 14 50.8185 14.3687 51.4749 15.0251C52.1313 15.6815 52.5 16.5717 52.5 17.5V42C52.5 42.9283 52.1313 43.8185 51.4749 44.4749C50.8185 45.1312 49.9283 45.5 49 45.5H45.5V14ZM36.75 3.5C38.1424 3.5 39.4777 4.05312 40.4623 5.03769C41.4469 6.02225 42 7.35761 42 8.75V47.25C42 48.6424 41.4469 49.9777 40.4623 50.9623C39.4777 51.9469 38.1424 52.5 36.75 52.5H19.25C17.8576 52.5 16.5223 51.9469 15.5377 50.9623C14.5531 49.9777 14 48.6424 14 47.25V8.75C14 7.35761 14.5531 6.02225 15.5377 5.03769C16.5223 4.05312 17.8576 3.5 19.25 3.5H36.75Z" fill="black"/>
</svg>
