<svg width="23" height="21" viewBox="0 0 23 21" fill="none" xmlns="http://www.w3.org/2000/svg">
<path fill-rule="evenodd" clip-rule="evenodd" d="M16.353 0.0839844C19.8217 0.0839844 22.4373 2.91419 22.4373 6.66732V13.8215C22.4373 15.7423 21.7582 17.4777 20.5238 18.709C19.4165 19.8121 17.98 20.3965 16.3696 20.3965H6.10609C4.4988 20.3965 3.06338 19.8131 1.95505 18.709C0.720671 17.4777 0.0415039 15.7423 0.0415039 13.8215V6.66732C0.0415039 2.91419 2.65713 0.0839844 6.12588 0.0839844H16.353ZM16.353 1.64648H6.12588C3.50609 1.64648 1.604 3.75794 1.604 6.66732V13.8215C1.604 15.3246 2.12067 16.6673 3.05817 17.6017C3.8665 18.409 4.92171 18.834 6.10921 18.834H16.353C16.355 18.8319 16.3634 18.834 16.3696 18.834C17.5582 18.834 18.6123 18.409 19.4207 17.6017C20.3592 16.6673 20.8748 15.3246 20.8748 13.8215V6.66732C20.8748 3.75794 18.9728 1.64648 16.353 1.64648ZM17.9946 6.46815C18.2665 6.80253 18.2155 7.29419 17.8811 7.56711L13.2519 11.3296C12.6665 11.7942 11.9665 12.0265 11.2675 12.0265C10.5707 12.0265 9.87588 11.7963 9.29463 11.3359L4.62275 7.56919C4.2863 7.29836 4.23421 6.80565 4.504 6.47023C4.77588 6.13586 5.26755 6.08273 5.60296 6.35253L10.2707 10.115C10.8571 10.5796 11.6832 10.5796 12.2738 10.1109L16.8946 6.35461C17.23 6.08065 17.7217 6.13273 17.9946 6.46815Z" fill="#525252"/>
</svg>
