<svg width="9" height="15" viewBox="0 0 9 15" fill="none" xmlns="http://www.w3.org/2000/svg">
<path d="M6.45731 2.62159H8.43332C8.61511 2.62159 8.76265 2.48583 8.76265 2.31855V0.500306C8.76265 0.333028 8.61511 0.197266 8.43332 0.197266H6.45731C4.46022 0.197266 2.83463 1.69247 2.83463 3.53071V5.65199H0.529286C0.347493 5.65199 0.199951 5.78776 0.199951 5.95503V7.77328C0.199951 7.94055 0.347493 8.07632 0.529286 8.07632H2.83463V14.4402C2.83463 14.6074 2.98217 14.7432 3.16396 14.7432H5.13997C5.32176 14.7432 5.46931 14.6074 5.46931 14.4402V8.07632H7.77465C7.91626 8.07632 8.04207 7.99268 8.08752 7.86904L8.74619 6.05079C8.77978 5.95867 8.76265 5.85685 8.70074 5.77745C8.63816 5.69866 8.53936 5.65199 8.43332 5.65199H5.46931V3.53071C5.46931 3.02948 5.91259 2.62159 6.45731 2.62159Z" fill="#0A142F"/>
</svg>
