<svg width="24" height="22" viewBox="0 0 24 22" fill="none" xmlns="http://www.w3.org/2000/svg">
<path d="M12 0.5C5.29219 0.5 0.213891 6.08281 0 12.5V17.375C0 17.9984 0.503906 18.5 1.08281 18.5C1.66172 18.5 2.25 17.9984 2.25 17.375V12.5C2.25 7.12344 6.62531 2.75937 12 2.75937C17.3766 2.75937 21.75 7.12344 21.75 12.5V17.375C21.75 17.9984 22.2516 18.5 22.875 18.5C23.4984 18.5 24 17.9984 24 17.375V12.4578C23.7844 6.08281 18.7078 0.5 12 0.5ZM7.5 12.5H6.75C5.09344 12.5 3.75 13.8453 3.75 15.5061V18.4944C3.75 20.1547 5.09531 21.5 6.75 21.5H7.5C8.32781 21.5 9 20.8278 9 19.9977V14.0023C9 13.1703 8.32969 12.5 7.5 12.5ZM17.25 12.5H16.5C15.6722 12.5 15 13.1713 15 14.0019V19.9972C15 20.8269 15.6722 21.4995 16.5 21.4995L17.25 21.5C18.9066 21.5 20.25 20.1547 20.25 18.4939V15.5056C20.25 13.8453 18.9047 12.5 17.25 12.5Z" fill="white"/>
</svg>
