<svg width="54" height="60" viewBox="0 0 54 60" fill="none" xmlns="http://www.w3.org/2000/svg">
<path d="M18.8953 0.833984H29.1036C30.7178 0.834033 32.2754 1.429 33.4785 2.50515C34.6817 3.5813 35.446 5.06312 35.6253 6.66732H40.7703C42.5108 6.66732 44.18 7.35872 45.4107 8.58943C46.6414 9.82014 47.3328 11.4893 47.3328 13.2298V24.459C44.2438 22.8804 40.7263 22.3457 37.3077 22.935C33.8891 23.5243 30.7536 25.206 28.3715 27.7278C25.9893 30.2496 24.4888 33.4756 24.095 36.9222C23.7011 40.3688 24.4351 43.8502 26.187 46.8444L19.6624 53.3719C18.9173 54.1161 18.4206 55.0725 18.2405 56.1101C18.0603 57.1476 18.2055 58.2155 18.6561 59.1673H7.22864C6.36684 59.1673 5.51348 58.9976 4.71728 58.6678C3.92109 58.338 3.19764 57.8546 2.58826 57.2452C1.97887 56.6358 1.49548 55.9124 1.16568 55.1162C0.835884 54.32 0.666145 53.4666 0.666145 52.6048V13.2298C0.666145 12.368 0.835884 11.5147 1.16568 10.7185C1.49548 9.92226 1.97887 9.19881 2.58826 8.58943C3.19764 7.98005 3.92109 7.49665 4.71728 7.16686C5.51348 6.83706 6.36684 6.66732 7.22864 6.66732H12.3736C12.553 5.06312 13.3173 3.5813 14.5204 2.50515C15.7236 1.429 17.2811 0.834033 18.8953 0.833984ZM29.1036 5.20898H18.8953C18.3151 5.20898 17.7588 5.43945 17.3485 5.84969C16.9383 6.25992 16.7078 6.81632 16.7078 7.39648C16.7078 7.97665 16.9383 8.53305 17.3485 8.94328C17.7588 9.35352 18.3151 9.58398 18.8953 9.58398H29.1036C29.6838 9.58398 30.2402 9.35352 30.6504 8.94328C31.0607 8.53305 31.2911 7.97665 31.2911 7.39648C31.2911 6.81632 31.0607 6.25992 30.6504 5.84969C30.2402 5.43945 29.6838 5.20898 29.1036 5.20898ZM29.9786 47.1798C27.8666 44.6567 26.7793 41.4324 26.9321 38.1456C27.0849 34.8587 28.4667 31.7492 30.8037 29.433C33.1407 27.1167 36.2625 25.7628 39.5506 25.6393C42.8386 25.5159 46.0531 26.632 48.5572 28.7665C51.0613 30.901 52.6724 33.8982 53.0712 37.1643C53.47 40.4305 52.6275 43.7272 50.7105 46.4016C48.7936 49.0759 45.9421 50.9326 42.7209 51.604C39.4998 52.2754 36.1439 51.7123 33.3182 50.0265L24.8161 58.5257C24.6159 58.7406 24.3744 58.913 24.106 59.0325C23.8377 59.1521 23.548 59.2164 23.2543 59.2215C22.9606 59.2267 22.6689 59.1727 22.3965 59.0627C22.1241 58.9527 21.8767 58.7889 21.6689 58.5812C21.4612 58.3735 21.2975 58.126 21.1875 57.8536C21.0774 57.5813 21.0234 57.2895 21.0286 56.9958C21.0338 56.7021 21.0981 56.4124 21.2176 56.1441C21.3372 55.8757 21.5096 55.6342 21.7245 55.434L29.9786 47.1798ZM40.0411 47.5007C42.3618 47.5007 44.5874 46.5788 46.2283 44.9378C47.8693 43.2969 48.7911 41.0713 48.7911 38.7507C48.7911 36.43 47.8693 34.2044 46.2283 32.5635C44.5874 30.9225 42.3618 30.0007 40.0411 30.0007C37.7205 30.0007 35.4949 30.9225 33.854 32.5635C32.213 34.2044 31.2911 36.43 31.2911 38.7507C31.2911 41.0713 32.213 43.2969 33.854 44.9378C35.4949 46.5788 37.7205 47.5007 40.0411 47.5007Z" fill="#743B96" fill-opacity="0.92"/>
</svg>
