<svg width="16" height="15" viewBox="0 0 16 15" fill="none" xmlns="http://www.w3.org/2000/svg">
<path d="M2.56544 3.75688C3.57206 3.75688 4.38809 2.96003 4.38809 1.97707C4.38809 0.994112 3.57206 0.197266 2.56544 0.197266C1.55882 0.197266 0.742798 0.994112 0.742798 1.97707C0.742798 2.96003 1.55882 3.75688 2.56544 3.75688Z" fill="#0A142F"/>
<path d="M4.08432 4.94531H1.04657C0.878889 4.94531 0.742798 5.0782 0.742798 5.24195V14.141C0.742798 14.3047 0.878889 14.4376 1.04657 14.4376H4.08432C4.252 14.4376 4.38809 14.3047 4.38809 14.141V5.24195C4.38809 5.0782 4.252 4.94531 4.08432 4.94531Z" fill="#0A142F"/>
<path d="M13.1366 4.45212C11.8383 4.01785 10.2143 4.39932 9.24043 5.08336C9.20702 4.9558 9.08794 4.86088 8.94638 4.86088H5.90863C5.74095 4.86088 5.60486 4.99377 5.60486 5.15752V14.0565C5.60486 14.2203 5.74095 14.3532 5.90863 14.3532H8.94638C9.11406 14.3532 9.25015 14.2203 9.25015 14.0565V7.66111C9.74105 7.2482 10.3735 7.11649 10.8911 7.33125C11.393 7.5383 11.6804 8.04377 11.6804 8.71713V14.0565C11.6804 14.2203 11.8164 14.3532 11.9841 14.3532H15.0219C15.1896 14.3532 15.3256 14.2203 15.3256 14.0565V8.11971C15.291 5.68197 14.1166 4.7796 13.1366 4.45212Z" fill="#0A142F"/>
</svg>
