<svg width="48" height="46" viewBox="0 0 48 46" fill="none" xmlns="http://www.w3.org/2000/svg">
<path d="M24.0006 0.494141L32.7973 6.00081H40.334V10.6675L45.0707 13.6775C46.424 14.4941 47.334 15.9641 47.334 17.6675V41.0008C47.334 42.2385 46.8423 43.4255 45.9671 44.3006C45.092 45.1758 43.905 45.6675 42.6673 45.6675H5.33398C2.74398 45.6675 0.667313 43.5908 0.667313 41.0008V17.6675C0.667313 15.9641 1.57731 14.4941 2.93064 13.6775L7.66732 10.6675V6.00081H15.204L24.0006 0.494141ZM35.6673 10.6675H12.334V22.0541L24.0006 29.3341L35.6673 22.0541V10.6675ZM33.334 13.0008V16.5008H14.6673V13.0008H33.334ZM40.334 16.2208V19.1375L42.6673 17.6675L40.334 16.2208ZM7.66732 16.2208L5.33398 17.6675L7.66732 19.1375V16.2208ZM33.334 18.8341V22.3341H14.6673V18.8341H33.334Z" fill="black"/>
</svg>
