<svg width="19" height="20" viewBox="0 0 19 20" fill="none" xmlns="http://www.w3.org/2000/svg">
<path fill-rule="evenodd" clip-rule="evenodd" d="M0.00170898 9.5332C0.00170898 14.4942 4.04073 18.5332 9.00171 18.5332C10.8695 18.5332 12.6067 17.9607 14.0467 16.9819C14.0828 17.0795 14.1396 17.1707 14.2173 17.2483L16.2173 19.2483C16.3673 19.3983 16.5573 19.4683 16.7473 19.4683C16.9373 19.4683 17.1273 19.3983 17.2773 19.2483C17.5673 18.9583 17.5673 18.4783 17.2773 18.1883L15.2773 16.1883C15.2403 16.1513 15.2002 16.1191 15.1578 16.0915C16.9072 14.4484 18.0017 12.1157 18.0017 9.5332C18.0017 4.57223 13.9627 0.533203 9.00171 0.533203C4.04073 0.533203 0.00170898 4.57223 0.00170898 9.5332ZM1.31878 9.5332C1.31878 5.30101 4.76073 1.85028 9.00171 1.85028C13.2427 1.85028 16.6846 5.30101 16.6846 9.5332C16.6846 13.7654 13.2427 17.2161 9.00171 17.2161C4.76073 17.2161 1.31878 13.7654 1.31878 9.5332Z" fill="#8B8B8B"/>
</svg>
