<svg width="16" height="14" viewBox="0 0 16 14" fill="none" xmlns="http://www.w3.org/2000/svg">
<path d="M15.5277 2.11293C15.4279 2.00282 15.2671 1.97513 15.1351 2.04304C15.053 2.08524 14.8988 2.14063 14.7156 2.19535C14.9467 1.88677 15.1325 1.54127 15.2145 1.23071C15.25 1.09686 15.1981 0.955752 15.0852 0.875969C14.9723 0.796846 14.822 0.796846 14.709 0.875969C14.5311 1.00059 13.6725 1.37511 13.1296 1.49643C11.9026 0.417053 10.4748 0.304962 8.99049 1.17532C7.78388 1.88281 7.52129 3.32154 7.5725 4.19849C4.8107 3.93145 3.09402 2.46635 2.12769 1.25378C2.06007 1.16873 1.95109 1.12389 1.84868 1.13048C1.74102 1.1384 1.64386 1.1984 1.58872 1.29137C1.13181 2.06612 1.00511 2.92263 1.22372 3.76859C1.3432 4.23014 1.55196 4.63697 1.7942 4.96665C1.678 4.90929 1.56574 4.83742 1.46005 4.7517C1.36289 4.67126 1.227 4.65609 1.11212 4.7095C0.997891 4.76423 0.925022 4.88027 0.925022 5.00753C0.925022 6.4601 1.82965 7.42937 2.67453 7.93576C2.53798 7.91927 2.39553 7.88894 2.25176 7.84477C2.12834 7.80718 1.99442 7.84476 1.90908 7.94235C1.82374 8.03928 1.80339 8.17774 1.85656 8.29577C2.33119 9.35009 3.23057 10.0754 4.34329 10.3385C3.37171 10.9115 2.07123 11.1923 0.880382 11.0545C0.72611 11.0328 0.57906 11.131 0.53048 11.28C0.481901 11.4291 0.545579 11.5926 0.68147 11.6691C2.48809 12.6878 4.1214 13.0517 5.53283 13.0517C7.58694 13.0517 9.17233 12.2816 10.1374 11.6374C12.739 9.90329 14.3605 6.78979 14.1346 4.00398C14.5515 3.69474 15.1751 3.12373 15.5618 2.50987C15.6419 2.38591 15.6275 2.22239 15.5277 2.11293Z" fill="#0A142F"/>
</svg>
