<svg width="44" height="60" viewBox="0 0 44 60" fill="none" xmlns="http://www.w3.org/2000/svg">
<path d="M22 0C25.2584 0 27.7678 2.7186 27.7678 5.96925C27.7678 9.1002 27.7897 11.8396 27.7897 11.8396H33.5832C33.6923 11.8396 33.7978 11.8517 33.9018 11.8689H35.5132V17.4975H8.48683V11.8689H10.0982C10.2022 11.8517 10.3077 11.8396 10.4168 11.8396H16.2102C16.2102 11.8396 16.1443 9.3598 16.1443 5.98755C16.1443 2.85655 18.7416 0 22 0ZM43.2402 5.70925V60H0.759785V5.70925H14.218V9.64235H4.64888V56.0596H39.3474V9.64235H29.782V5.70925H43.2402ZM22 5.78245C20.9325 5.78245 20.07 6.64145 20.07 7.70505C20.07 8.7706 20.9325 9.6313 22 9.6313C23.0675 9.6313 23.9299 8.77055 23.9299 7.70505C23.9299 6.6415 23.0675 5.78245 22 5.78245ZM35.5132 21.3135V23.2398H33.5832V21.3135H35.5132ZM29.7197 21.3501V23.2764H8.48683V21.3501H29.7197ZM35.5132 28.5791V30.5054H33.5832V28.5791H35.5132ZM29.7197 28.6157V30.5457H8.48683V28.6157H29.7197ZM35.5132 35.8448V37.771H33.5832V35.8448H35.5132ZM29.7197 35.885V37.8112H8.48683V35.885H29.7197ZM35.5132 43.114V45.0402H33.5832V43.114H35.5132ZM29.7197 43.1543V45.0806H8.48683V43.1543H29.7197ZM35.5132 50.3797V52.3059H33.5832V50.3797H35.5132ZM29.7197 50.4199V52.3461H8.48683V50.4199H29.7197Z" fill="black"/>
</svg>
