<svg width="19" height="20" viewBox="0 0 19 20" fill="none" xmlns="http://www.w3.org/2000/svg">
<path d="M8.85358 16.1996H2.99878C2.68052 16.1996 2.37529 16.0732 2.15025 15.8481C1.92521 15.6231 1.79878 15.3179 1.79878 14.9996V2.99961C1.79878 2.68135 1.92521 2.37612 2.15025 2.15108C2.37529 1.92604 2.68052 1.79961 2.99878 1.79961H15C15.3182 1.79961 15.6235 1.92604 15.8485 2.15108C16.0735 2.37612 16.2 2.68135 16.2 2.99961V8.10801C16.6234 8.25774 17.0265 8.4597 17.4 8.70921V2.99961C17.4 2.36309 17.1471 1.75264 16.697 1.30255C16.2469 0.852466 15.6365 0.599609 15 0.599609H2.99998C2.36346 0.599609 1.75301 0.852466 1.30292 1.30255C0.852835 1.75264 0.599977 2.36309 0.599977 2.99961V14.9996C0.599977 15.6361 0.852835 16.2466 1.30292 16.6967C1.75301 17.1467 2.36346 17.3996 2.99998 17.3996H7.65478L8.85478 16.1996H8.85358ZM12.8988 6.59961C12.6601 6.59961 12.4312 6.50479 12.2624 6.336C12.0936 6.16722 11.9988 5.9383 11.9988 5.69961C11.9988 5.46091 12.0936 5.232 12.2624 5.06321C12.4312 4.89443 12.6601 4.79961 12.8988 4.79961C13.1375 4.79961 13.3664 4.89443 13.5352 5.06321C13.704 5.232 13.7988 5.46091 13.7988 5.69961C13.7988 5.9383 13.704 6.16722 13.5352 6.336C13.3664 6.50479 13.1375 6.59961 12.8988 6.59961ZM10.2 5.99961C10.2 5.84048 10.1368 5.68787 10.0242 5.57534C9.91172 5.46282 9.75911 5.39961 9.59998 5.39961H4.79998C4.64085 5.39961 4.48823 5.46282 4.37571 5.57534C4.26319 5.68787 4.19998 5.84048 4.19998 5.99961C4.19998 6.15874 4.26319 6.31135 4.37571 6.42387C4.48823 6.53639 4.64085 6.59961 4.79998 6.59961H9.59998C9.75911 6.59961 9.91172 6.53639 10.0242 6.42387C10.1368 6.31135 10.2 6.15874 10.2 5.99961ZM10.2 9.59961C10.2 9.44048 10.1368 9.28787 10.0242 9.17534C9.91172 9.06282 9.75911 8.99961 9.59998 8.99961H4.79998C4.64085 8.99961 4.48823 9.06282 4.37571 9.17534C4.26319 9.28787 4.19998 9.44048 4.19998 9.59961C4.19998 9.75874 4.26319 9.91135 4.37571 10.0239C4.48823 10.1364 4.64085 10.1996 4.79998 10.1996H9.59998C9.75911 10.1996 9.91172 10.1364 10.0242 10.0239C10.1368 9.91135 10.2 9.75874 10.2 9.59961ZM4.79998 13.7996H9.03358C8.98901 13.4008 8.98901 12.9984 9.03358 12.5996H4.79878C4.63965 12.5996 4.48703 12.6628 4.37451 12.7753C4.26199 12.8879 4.19878 13.0405 4.19878 13.1996C4.19878 13.3587 4.26199 13.5113 4.37451 13.6239C4.48703 13.7364 4.63965 13.7996 4.79878 13.7996H4.79998ZM18.138 11.2856C18.5705 12.1308 18.7039 13.0975 18.5164 14.0283C18.329 14.959 17.8317 15.7987 17.1057 16.4106C16.3797 17.0224 15.4679 17.3702 14.5189 17.3973C13.5698 17.4243 12.6396 17.1291 11.88 16.5596L8.82838 19.6292C8.71571 19.7417 8.56297 19.8049 8.40375 19.8047C8.24453 19.8046 8.09188 19.7413 7.97938 19.6286C7.86687 19.5159 7.80373 19.3632 7.80384 19.204C7.80396 19.0448 7.86731 18.8921 7.97998 18.7796L11.04 15.7196C10.6915 15.2542 10.4435 14.7215 10.3116 14.1553C10.1797 13.5891 10.1668 13.0017 10.2737 12.4302C10.3806 11.8587 10.605 11.3157 10.9326 10.8354C11.2603 10.3552 11.6841 9.94815 12.1772 9.64017C12.6703 9.33219 13.222 9.12993 13.7973 9.04621C14.3726 8.96249 14.959 8.99913 15.5195 9.1538C16.0799 9.30847 16.6021 9.57781 17.0531 9.94477C17.504 10.3117 17.8738 10.7683 18.1392 11.2856H18.138ZM11.9052 11.5328C11.682 11.8603 11.5259 12.2287 11.446 12.6168C11.366 13.0049 11.3637 13.405 11.4392 13.794C11.5147 14.183 11.6665 14.5532 11.8859 14.8832C12.1053 15.2132 12.3879 15.4964 12.7174 15.7166C13.0468 15.9368 13.4166 16.0895 13.8055 16.1659C14.1943 16.2424 14.5944 16.241 14.9827 16.162C15.371 16.0829 15.7398 15.9278 16.0677 15.7054C16.3957 15.483 16.6764 15.1979 16.8936 14.8664C17.327 14.2048 17.4817 13.3989 17.3239 12.6238C17.1661 11.8488 16.7087 11.1674 16.0511 10.728C15.3935 10.2885 14.5889 10.1265 13.8125 10.2773C13.0361 10.428 12.3506 10.8792 11.9052 11.5328Z" fill="black"/>
</svg>
